<?xml version="1.0" standalone="no"?>
<!DOCTYPE svg PUBLIC "-//W3C//DTD SVG 20010904//EN"
 "http://www.w3.org/TR/2001/REC-SVG-20010904/DTD/svg10.dtd">
<svg version="1.0" xmlns="http://www.w3.org/2000/svg"
 width="4167.000000pt" height="4167.000000pt" viewBox="0 0 4167.000000 4167.000000"
 preserveAspectRatio="xMidYMid meet">
<metadata>
Created by potrace 1.11, written by Peter Selinger 2001-2013
</metadata>
<g transform="translate(0.000000,4167.000000) scale(0.100000,-0.100000)"
fill="#000000" stroke="none">
<path d="M20470 41659 c-1069 -74 -2075 -481 -2910 -1178 -152 -127 -470 -445
-599 -601 -597 -716 -975 -1544 -1120 -2450 -48 -300 -56 -407 -55 -815 0
-428 12 -574 74 -918 200 -1105 790 -2147 1629 -2877 189 -164 323 -266 531
-405 494 -329 1001 -553 1572 -695 384 -95 708 -138 1118 -147 1338 -29 2564
431 3553 1334 447 409 815 904 1097 1478 242 491 388 962 464 1496 40 281 50
426 50 739 0 313 -10 457 -50 740 -75 528 -222 1003 -464 1495 -251 511 -558
942 -955 1340 -794 794 -1829 1299 -2939 1435 -318 39 -690 50 -996 29z"/>
<path d="M4170 32809 c-688 -66 -1331 -417 -1749 -956 -260 -336 -425 -724
-493 -1158 -29 -187 -32 -559 -5 -740 83 -568 342 -1078 745 -1467 202 -194
393 -327 647 -449 254 -122 262 -124 1441 -399 4681 -1094 7795 -1687 10599
-2019 187 -22 359 -43 382 -46 l43 -6 -5 -242 c-3 -133 -10 -514 -15 -847 -60
-3618 -251 -6956 -546 -9510 -390 -3394 -953 -5922 -1909 -8580 -318 -885
-745 -1987 -991 -2562 -101 -237 -200 -477 -219 -534 -112 -339 -148 -760 -96
-1113 82 -545 318 -1021 699 -1413 255 -262 512 -438 853 -584 250 -107 456
-154 769 -175 777 -51 1503 221 2020 758 190 197 318 379 441 628 94 191 590
1442 959 2420 651 1725 1099 3140 1460 4610 304 1237 568 2600 759 3930 17
116 33 225 36 243 l6 32 827 -2 827 -3 57 -385 c414 -2764 969 -5004 1848
-7460 392 -1096 1182 -3126 1327 -3413 118 -233 275 -449 458 -632 512 -512
1231 -775 1985 -726 375 25 584 79 905 236 176 86 287 154 445 273 127 96 331
294 430 416 233 289 420 668 503 1021 82 347 88 728 17 1075 -39 191 -92 337
-290 800 -323 758 -818 2056 -1156 3035 -795 2299 -1308 4600 -1668 7480 -362
2885 -567 6392 -632 10767 l-7 457 34 5 c19 3 97 13 174 21 2069 233 4668 683
7590 1316 1506 326 4160 938 4372 1008 737 243 1315 818 1572 1564 180 524
179 1135 -2 1662 -286 830 -997 1449 -1867 1624 -187 38 -281 46 -520 45 -305
-1 -377 -12 -975 -154 -4461 -1056 -7277 -1613 -9930 -1964 -1477 -196 -2678
-301 -4190 -367 -389 -17 -1788 -23 -2245 -10 -2990 86 -6075 500 -10200 1371
-1121 237 -2273 496 -3950 890 -443 104 -845 196 -895 205 -203 34 -473 44
-675 24z"/>
</g>
</svg>
