<svg version="1.1" 
     xmlns="http://www.w3.org/2000/svg" 
     viewBox="0 0 100 100" >
	<path d="M86.3,84.4c0,3.1-2.5,5.6-5.6,5.6H19.3c-3.1,0-5.6-2.5-5.6-5.6V28.5c0-3.1,2.5-5.6,5.6-5.6h5.6v-4.2
		c0-3.8,3.1-7,7-7h2.8c3.8,0,7,3.1,7,7v4.2h16.8v-4.2c0-3.8,3.1-7,7-7h2.8c3.8,0,7,3.1,7,7v4.2h5.6c3.1,0,5.6,2.5,5.6,5.6V84.4z
		 M31.8,52.3V39.7H19.3v12.6H31.8z M31.8,69v-14H19.3v14H31.8z M31.8,84.4V71.8H19.3v12.6H31.8z M36,18.8c0-0.7-0.7-1.4-1.4-1.4
		h-2.8c-0.7,0-1.4,0.7-1.4,1.4v12.6c0,0.7,0.7,1.4,1.4,1.4h2.8c0.7,0,1.4-0.7,1.4-1.4V18.8z M48.6,52.3V39.7h-14v12.6H48.6z
		 M48.6,69v-14h-14v14H48.6z M48.6,84.4V71.8h-14v12.6H48.6z M65.4,52.3V39.7h-14v12.6H65.4z M65.4,69v-14h-14v14H65.4z M65.4,84.4
		V71.8h-14v12.6H65.4z M69.6,18.8c0-0.7-0.7-1.4-1.4-1.4h-2.8c-0.7,0-1.4,0.7-1.4,1.4v12.6c0,0.7,0.7,1.4,1.4,1.4h2.8
		c0.7,0,1.4-0.7,1.4-1.4V18.8z M80.7,52.3V39.7H68.2v12.6H80.7z M80.7,69v-14H68.2v14H80.7z M80.7,84.4V71.8H68.2v12.6H80.7z"/>
</svg>
