<svg version="1.1" 
     xmlns="http://www.w3.org/2000/svg" 
	   viewBox="0 0 100 100" >
	<path d="M83,83.2c-0.5,0.8-1.4,1.3-2.4,1.3H19.4c-1,0-1.8-0.5-2.4-1.3c-4-6.3-6.2-13.6-6.2-21.1
		c0-21.6,17.6-39.2,39.2-39.2c21.6,0,39.2,17.6,39.2,39.2C89.2,69.6,87,76.8,83,83.2z M22,56.5c-3.1,0-5.6,2.5-5.6,5.6
		s2.5,5.6,5.6,5.6c3.1,0,5.6-2.5,5.6-5.6S25.1,56.5,22,56.5z M30.4,36.9c-3.1,0-5.6,2.5-5.6,5.6s2.5,5.6,5.6,5.6
		c3.1,0,5.6-2.5,5.6-5.6S33.5,36.9,30.4,36.9z M59.1,46.8c0.3-1.5-0.5-3-2-3.4s-3,0.5-3.4,2l-4.4,16.7c-3.5,0.3-6.5,2.7-7.4,6.2
		c-1.2,4.5,1.5,9.1,6,10.3c4.5,1.2,9.1-1.5,10.3-6c0.9-3.5-0.6-7.1-3.4-9.1L59.1,46.8z M50,28.5c-3.1,0-5.6,2.5-5.6,5.6
		s2.5,5.6,5.6,5.6c3.1,0,5.6-2.5,5.6-5.6S53.1,28.5,50,28.5z M69.6,36.9c-3.1,0-5.6,2.5-5.6,5.6s2.5,5.6,5.6,5.6
		c3.1,0,5.6-2.5,5.6-5.6S72.7,36.9,69.6,36.9z M78,56.5c-3.1,0-5.6,2.5-5.6,5.6s2.5,5.6,5.6,5.6c3.1,0,5.6-2.5,5.6-5.6
		S81.1,56.5,78,56.5z"/>
</svg>
