<svg version="1.1" 
     xmlns="http://www.w3.org/2000/svg" 
     viewBox="0 0 100 100" >
	<path d="M79.3,71.9c-0.9,2.1-3.4,3.5-5.3,4.6c-2.6,1.4-5.2,2.2-8.1,2.2c-4.1,0-7.7-1.7-11.4-3
		c-2.7-1-5.2-2.1-7.6-3.6c-7.4-4.6-16.3-13.5-20.9-20.9c-1.5-2.4-2.7-5-3.6-7.6c-1.4-3.7-3-7.4-3-11.4c0-2.9,0.8-5.5,2.2-8.1
		c1.1-2,2.5-4.4,4.6-5.3c1.4-0.7,4.5-1.4,6.1-1.4c0.3,0,0.6,0,0.9,0.1c0.9,0.3,1.9,2.4,2.3,3.3c1.4,2.5,2.7,5,4.2,7.5
		c0.7,1.1,2,2.5,2,3.9c0,2.7-7.9,6.5-7.9,8.9c0,1.2,1.1,2.7,1.7,3.7c4.4,7.9,9.9,13.4,17.8,17.8c1,0.6,2.6,1.7,3.7,1.7
		c2.4,0,6.2-7.9,8.9-7.9c1.4,0,2.7,1.3,3.9,2c2.4,1.4,5,2.8,7.5,4.2c0.9,0.4,3,1.4,3.3,2.3c0.1,0.3,0.1,0.6,0.1,0.9
		C80.7,67.4,80,70.5,79.3,71.9z"/>
</svg>
