<?xml version="1.0" standalone="no"?>
<!DOCTYPE svg PUBLIC "-//W3C//DTD SVG 20010904//EN"
 "http://www.w3.org/TR/2001/REC-SVG-20010904/DTD/svg10.dtd">
<svg version="1.0" xmlns="http://www.w3.org/2000/svg"
 width="4180.000000pt" height="4180.000000pt" viewBox="0 0 4180.000000 4180.000000"
 preserveAspectRatio="xMidYMid meet">
<metadata>
Created by potrace 1.11, written by Peter Selinger 2001-2013
</metadata>
<g transform="translate(0.000000,4180.000000) scale(0.100000,-0.100000)"
fill="#000000" stroke="none">
<path d="M20545 41790 c-532 -40 -1044 -156 -1529 -346 -295 -116 -701 -331
-973 -516 -1156 -785 -1945 -2035 -2152 -3408 -206 -1369 129 -2729 944 -3825
207 -279 530 -622 785 -835 776 -646 1662 -1033 2645 -1155 394 -48 877 -48
1270 1 1669 208 3119 1224 3880 2719 306 601 483 1238 536 1926 17 229 6 765
-20 979 -75 611 -233 1140 -496 1668 -266 534 -577 959 -1006 1377 -815 794
-1862 1280 -3014 1400 -178 19 -698 27 -870 15z"/>
<path d="M4170 32909 c-596 -62 -1150 -330 -1562 -757 -369 -383 -589 -837
-675 -1392 -24 -156 -24 -556 0 -713 130 -847 618 -1532 1358 -1902 253 -127
328 -150 1099 -330 4812 -1127 7575 -1666 10520 -2055 164 -21 899 -110 914
-110 15 0 -18 -1803 -54 -2995 -188 -6111 -687 -10333 -1630 -13765 -304
-1107 -665 -2190 -1188 -3560 -274 -718 -414 -1068 -593 -1487 -233 -545 -261
-626 -310 -908 -30 -173 -37 -513 -15 -696 37 -293 111 -539 240 -805 253
-516 646 -915 1153 -1172 356 -180 617 -245 1033 -258 279 -9 497 13 752 77
713 178 1316 669 1638 1334 103 213 674 1669 1055 2690 574 1538 969 2788
1315 4160 313 1239 580 2595 785 3980 31 209 58 390 61 402 l4 23 825 0 c453
0 826 -4 829 -9 3 -4 28 -160 56 -346 412 -2762 968 -5022 1828 -7435 412
-1154 1208 -3206 1362 -3510 131 -258 282 -462 488 -662 498 -484 1155 -729
1882 -704 283 9 495 44 692 112 923 321 1579 1109 1724 2069 25 166 26 533 1
695 -45 292 -83 405 -317 955 -339 793 -858 2157 -1188 3125 -678 1983 -1134
3896 -1481 6210 -451 3004 -713 6821 -791 11495 -15 873 -16 985 -10 985 54 0
1134 138 1610 205 2546 360 5297 903 9330 1844 1289 301 1313 307 1575 436
685 336 1172 957 1339 1705 61 275 77 624 42 890 -76 571 -317 1064 -711 1455
-206 205 -393 338 -660 470 -249 123 -485 198 -755 240 -143 22 -466 31 -612
16 -185 -18 -250 -32 -1015 -211 -3428 -806 -5582 -1257 -7698 -1609 -2333
-389 -4266 -594 -6350 -673 -430 -16 -1918 -16 -2335 0 -1715 67 -3155 199
-4920 452 -2521 360 -5126 884 -9320 1875 -546 129 -636 147 -809 165 -120 12
-389 11 -511 -1z"/>
</g>
</svg>
