<svg version="1.1" 
     xmlns="http://www.w3.org/2000/svg" 
     viewBox="0 0 100 100" >

	<path d="M50,84.4c-18.5,0-33.5-15-33.5-33.5c0-18.5,15-33.5,33.5-33.5s33.5,15,33.5,33.5
		C83.5,69.4,68.5,84.4,50,84.4z M50,23c-15.4,0-27.9,12.5-27.9,27.9S34.6,78.8,50,78.8c15.4,0,27.9-12.5,27.9-27.9S65.4,23,50,23z
		 M38.8,45.3c-3.1,0-5.6-2.5-5.6-5.6c0-3.1,2.5-5.6,5.6-5.6s5.6,2.5,5.6,5.6C44.4,42.8,41.9,45.3,38.8,45.3z M50,70.4
		c-7.4,0-13.8-4.7-16-11.7c-0.5-1.5,0.3-3,1.8-3.5c1.4-0.5,3,0.3,3.5,1.8c1.4,4.7,5.8,7.8,10.6,7.8s9.2-3.1,10.6-7.8
		c0.5-1.5,2-2.3,3.5-1.8c1.4,0.5,2.3,2,1.8,3.5C63.8,65.7,57.4,70.4,50,70.4z M61.2,45.3c-3.1,0-5.6-2.5-5.6-5.6
		c0-3.1,2.5-5.6,5.6-5.6c3.1,0,5.6,2.5,5.6,5.6C66.7,42.8,64.3,45.3,61.2,45.3z"/>
</svg>
